# xmcd CD database file
#
# Track frame offsets:
#	150
#	23476
#	49577
#	69452
#	95928
#	119403
#	142203
#	161028
#	183529
#	193804
#	209179
#
# Disc length: 3025 seconds
#
# Revision: 1
# Processed by: cddbd v1.4PL0 Copyright (c) Steve Scherf et al.
# Submitted via: CDex 1.50beta10
#
DISCID=af0bcf0b
DTITLE=Ohno Yuji - Isn't It more Lupintic
DYEAR=2000
DGENRE=Jazz
TTITLE0=Theme From Lupin The Third (More Lupinitic Version)
TTITLE1=Angel Dance
TTITLE2=Across The Wind
TTITLE3=Lonesome City Breeze
TTITLE4=Sweet On You
TTITLE5=Saudages Do Rio
TTITLE6=Isn't It More Lupinitic
TTITLE7=Midnight Cruise
TTITLE8=Cool Wave
TTITLE9=Manhattan Serenada
TTITLE10=Life's A Frame
EXTD=YEAR: 2000
EXTT0=
EXTT1=
EXTT2=
EXTT3=
EXTT4=
EXTT5=
EXTT6=
EXTT7=
EXTT8=
EXTT9=
EXTT10=
PLAYORDER=
